<svg width="67" height="66" viewBox="0 0 67 66" fill="none" xmlns="http://www.w3.org/2000/svg">
<path d="M47.5127 40.9995C47.0424 42.8211 33.4181 50.3685 0.660156 56.072V56.4677C2.51156 56.3632 9.05867 55.6913 12.9929 56.5946C15.9417 57.2665 41.3164 49.8758 45.3477 45.8221C47.0797 44.5456 48.0427 42.5747 48.5578 40.9995H47.5052H47.5127Z" fill="#B2571B"/>
<path d="M46.8791 41.7835C47.6854 41.1564 47.9317 39.8425 47.9317 39.8425C47.9466 39.7604 47.9541 39.6409 47.9541 39.4916C47.9392 38.7525 47.7376 38.0284 47.4091 37.3715L46.1102 34.781L44.6992 31.9068C45.1621 30.3764 44.6992 31.9068 45.9683 27.8083C46.1699 28.0323 46.782 30.1674 47.8869 32.0487C48.8649 34.0121 49.2979 35.7142 49.1934 37.155L49.156 37.9836C48.9395 40.0217 48.4394 41.7238 47.648 43.0974" fill="#B2571B"/>
<path d="M43.303 7.62964L42.5117 9.84685C42.5117 9.84685 48.1705 13.3033 45.3262 21.239C45.3262 21.239 48.0062 17.4092 46.4236 12.4224C45.1694 8.98833 43.303 7.62964 43.303 7.62964Z" fill="#B2571B"/>
<path d="M50.0817 42.5301C50.2608 41.9852 50.6267 41.2013 51.2313 40.955C68.2897 34.2137 48.1034 42.1942 66.0949 35.0723L65.7365 36.2742C63.8478 36.9983 59.8762 38.7154 57.0767 39.8053C54.4937 40.8131 51.9256 41.8135 50.0742 42.5301" fill="#B2571B"/>
<path d="M40.191 44.5308C40.1462 44.1799 40.1089 43.9784 40.0716 43.635C40.0492 43.3961 40.0193 43.1572 39.9969 42.9034C39.9969 42.8212 39.5341 34.475 39.437 32.8625C39.34 31.1902 39.228 29.5105 39.1235 27.8383L39.1086 27.5919C39.0862 27.2411 39.0638 26.8752 39.0264 26.5169C38.9443 25.7928 38.8921 25.0537 38.8398 24.337C38.795 23.695 38.7502 23.0306 38.683 22.3886C38.6532 22.1198 38.6308 21.8585 38.6159 21.5898C38.6009 21.3658 38.586 21.1344 38.5636 20.9104C38.4591 19.8429 38.3396 18.7679 38.2277 17.7003C38.1903 17.3569 38.153 17.0135 38.1231 16.6627C38.041 15.8116 37.9514 14.9382 37.832 14.0796C37.608 12.4223 37.3691 10.7949 37.1153 9.24957C36.6898 6.68895 36.2269 4.65091 35.6372 2.8219C35.3983 2.08283 35.137 1.34376 34.8906 0.619624C34.816 0.410594 34.7488 0.201564 34.6741 0C34.271 0.836119 33.5021 2.65766 33.2109 3.50871C33.3378 3.90438 33.4648 4.30004 33.5917 4.68824C33.8978 5.63634 34.1889 6.53218 34.4726 7.45042C35.0474 9.31675 35.4729 11.3847 35.8238 13.9527L35.8387 14.0573C35.9806 15.0949 36.1224 16.1252 36.2493 17.1628C36.3613 18.0213 36.4584 18.8799 36.5554 19.7384C36.6226 20.3281 36.6749 20.9254 36.7346 21.5151C36.7943 22.1124 36.8466 22.7096 36.9138 23.3068C36.9735 23.8667 37.0183 24.4341 37.0631 24.9865C37.078 25.2105 37.1004 25.4419 37.1153 25.6659L37.2049 26.7857C37.2422 27.2858 37.287 27.7935 37.3243 28.2937C37.3617 28.7565 37.4065 29.2268 37.4438 29.6972C37.5184 30.5631 37.5931 31.4366 37.6603 32.3026C37.7125 33.0267 37.7573 33.7508 37.7947 34.475C37.8171 34.8856 37.8395 35.3036 37.8693 35.7217C37.8917 36.0352 37.9141 36.3488 37.9365 36.6698C37.9589 36.9535 37.9813 37.2372 37.9962 37.5208C38.0485 38.342 38.3546 43.1572 38.4815 45.3371L40.191 44.5383V44.5308Z" fill="#B2571B"/>
<path d="M65.67 46.2253C65.3341 44.5904 64.7219 43.2691 63.7888 42.194C63.0796 41.3654 62.3256 40.9697 61.4894 40.9697C61.1908 40.9697 60.8773 41.022 60.5488 41.1265C59.9441 41.3131 59.3693 41.6491 58.787 42.1418C57.9061 42.8958 57.1745 43.7991 56.5175 44.6651C56.3831 44.8442 56.2637 44.9861 56.1293 45.1653C56.525 45.4265 57.1819 45.8521 57.6075 46.1208C58.242 45.643 58.9214 45.3444 59.7202 45.21C60.6981 45.0458 61.4671 45.322 62.0493 46.1432C62.5122 46.8076 62.8332 47.5318 63.1318 48.2708C63.2662 48.6068 63.3707 48.9576 63.5126 49.3533C62.4898 49.3682 56.8684 47.0391 55.5396 45.9193L54.9647 45.4788C54.9647 45.4788 53.3671 48.659 52.0607 49.8908C51.1723 50.7344 50.1944 51.4436 49.0298 51.8766C48.2161 52.1752 47.3501 52.332 46.4617 52.332C46.0287 52.332 45.5883 52.2947 45.1403 52.2275C43.9608 52.0408 42.9455 51.466 42.1169 50.5328C41.7511 50.1148 41.5047 49.7639 41.2584 49.2115L39.0859 50.2044C39.2352 50.7867 39.3472 51.2047 39.5563 51.7348C40.0116 52.877 40.5417 53.7131 41.221 54.3775C41.4525 54.6015 41.7137 54.8179 41.9601 55.027C42.0646 55.1166 42.1766 55.2061 42.2811 55.3032C42.5947 55.5719 42.9828 55.7884 43.4606 55.9751C44.1101 56.2214 44.782 56.3483 45.5061 56.3483C46.2303 56.3483 46.9843 56.2289 47.8353 55.9825C49.2239 55.5794 50.4034 54.7508 51.4336 53.4593C52.0756 52.6605 52.5012 51.7049 52.9043 50.7867C53.0237 50.5254 53.1357 50.2641 53.2552 49.9879L53.5986 49.1891L53.9196 49.4578C54.0092 49.5399 54.0987 49.6146 54.1883 49.6893C54.3675 49.846 54.5392 49.9879 54.7109 50.1222C55.7187 50.8986 56.8609 51.5631 58.1076 52.108C60.0337 52.9516 61.8702 53.4667 63.7291 53.6832C63.7664 53.6832 63.7962 53.6832 63.8261 53.6832C63.9754 53.6832 64.065 53.6384 64.1546 53.5115C64.3337 53.2502 64.4831 53.0039 64.61 52.7575C65.0803 51.8318 65.4461 50.8464 65.7148 49.846C65.8492 49.3458 65.9089 48.7934 65.894 48.2484C65.8791 47.6288 65.797 46.9719 65.6476 46.2477" fill="#B2571B"/>
<path d="M14.794 11.1681L15.1449 11.8773C15.7869 13.1987 16.4961 14.5424 17.2725 15.9011L17.8772 16.9836L18.2953 16.252C19.1538 14.7365 20.0571 13.0419 20.9977 11.1681C21.0798 11.1905 21.162 11.2054 21.2441 11.2054C21.3262 11.2054 21.4083 11.198 21.483 11.1681L21.5726 12.1013C21.6995 13.4002 21.8488 14.7067 22.0205 16.0131C22.2071 17.4091 22.3564 18.3647 22.4684 18.8798C22.1101 18.835 21.8413 18.8126 21.6547 18.8126C21.4979 18.8126 21.2441 18.835 20.8932 18.8798L20.8559 18.4618C20.826 18.0586 20.7887 17.5808 20.7514 17.0359L20.393 13.7735C19.2135 15.7742 18.3251 17.4763 17.713 18.8798H17.2725C17.0411 18.4394 16.5185 17.4539 15.7197 15.9235C15.3987 15.3412 15.0255 14.6619 14.5925 13.8855C14.3461 15.834 14.1893 17.4987 14.1221 18.8798C13.9206 18.835 13.7489 18.8126 13.607 18.8126C13.4876 18.8126 13.3308 18.835 13.1367 18.8798L13.2039 18.5289C13.3308 17.8571 13.5324 16.6103 13.8011 14.8037C14.055 13.0494 14.2192 11.8325 14.2864 11.1606C14.376 11.183 14.4656 11.198 14.5477 11.198C14.5477 11.198 14.6373 11.1905 14.794 11.1606" fill="#B2571B"/>
<path d="M16.0695 28.7564C15.6291 29.824 15.3305 30.6377 15.1662 31.1976C14.8751 31.1528 14.6959 31.1304 14.6287 31.1304C14.6063 31.1304 14.4346 31.1528 14.1211 31.1976L15.4275 28.2936C16.6071 25.6732 17.2939 24.0309 17.488 23.3665C17.6223 23.4038 17.7493 23.4262 17.8612 23.4262C17.9657 23.4262 18.0852 23.4112 18.2196 23.3665C18.6078 24.4788 19.1453 25.83 19.8396 27.4276C20.504 28.9729 21.0639 30.2271 21.5118 31.1976C20.8399 31.1528 20.5413 31.1304 20.6309 31.1304C20.5114 31.1304 20.3547 31.1379 20.168 31.1677C19.9515 31.1901 19.8246 31.1976 19.7948 31.1976L19.3244 29.9509L18.8541 28.7564L18.5256 28.0622L17.4656 25.2925L16.3159 28.0622L16.0546 28.7564H16.0695Z" fill="#B2571B"/>
<path d="M18.5753 39.6857L18.8888 40.1337C19.0307 40.3352 19.2248 40.6189 19.4711 40.9772C20.1206 41.8955 20.7552 42.7391 21.3748 43.508C20.9567 43.4632 20.6208 43.4408 20.3744 43.4408C20.1057 43.4408 19.7996 43.4632 19.4637 43.508C19.3218 43.284 19.1277 42.9705 18.8814 42.5748C18.4484 41.9104 17.8213 40.9996 17.0076 39.8425H16.7388V41.4401C16.7388 41.5521 16.7388 41.9029 16.7537 42.4852C16.7687 43.0675 16.7687 43.4109 16.7687 43.508C16.3208 43.4632 16.0669 43.4408 16.0147 43.4408C15.828 43.4408 15.5668 43.4632 15.2383 43.508C15.3055 41.8432 15.3428 40.2979 15.3428 38.872C15.3428 37.7821 15.3129 36.7593 15.2607 35.7888C15.6937 35.8261 16.0669 35.8485 16.3879 35.8485C16.485 35.8485 16.7985 35.8411 17.3286 35.8187C17.8586 35.7963 18.1647 35.7888 18.2468 35.7888C19.0456 35.7888 19.6279 35.9755 20.0086 36.3413C20.352 36.6697 20.5237 37.0878 20.5237 37.6029C20.5237 38.1852 20.3222 38.6704 19.9265 39.0437C19.5831 39.3647 19.1277 39.5812 18.5678 39.6857M16.7463 36.401V39.3125C17.1718 39.3349 17.4256 39.3498 17.5152 39.3498C18.0303 39.3498 18.426 39.1781 18.7022 38.8421C18.9336 38.5659 19.0456 38.2151 19.0456 37.797C19.0456 37.252 18.8888 36.8564 18.5753 36.6249C18.3215 36.4383 17.9781 36.3413 17.5376 36.3413C17.5675 36.3413 17.3062 36.3562 16.7463 36.3935" fill="#B2571B"/>
<path d="M15.8577 63.1643C15.798 63.127 15.7308 63.0971 15.6636 63.0747C15.6636 63.0747 15.6786 63.0747 15.686 63.0673C15.798 63.015 15.8801 62.9329 15.9324 62.8358C15.9921 62.7388 16.0145 62.6343 16.0145 62.5148C16.0145 62.2909 15.9548 62.1117 15.8279 61.9997C15.701 61.8803 15.5143 61.8206 15.2754 61.8206H14.2602C14.2004 61.8206 14.1556 61.8429 14.1183 61.8803C14.081 61.9176 14.0586 61.9699 14.0586 62.0221V64.3886C14.0586 64.4484 14.081 64.4931 14.1183 64.5305C14.1556 64.5678 14.2079 64.5902 14.2602 64.5902H15.2754C15.3725 64.5902 15.477 64.5753 15.5815 64.5529C15.686 64.5305 15.7831 64.4857 15.8727 64.426C15.9623 64.3662 16.0294 64.2841 16.0817 64.1721C16.134 64.0676 16.1638 63.9333 16.1638 63.769C16.1638 63.6197 16.134 63.5003 16.0742 63.3957C16.0145 63.2912 15.9399 63.2166 15.8503 63.1568M15.4994 62.2983C15.5666 62.3581 15.5965 62.4551 15.5965 62.582C15.5965 62.7089 15.5591 62.7985 15.4845 62.8582C15.4098 62.918 15.3277 62.9553 15.2307 62.9553H14.4916V62.2088H15.2232C15.3352 62.2088 15.4248 62.2386 15.4919 62.2983M15.6114 64.105C15.5293 64.1796 15.4173 64.2169 15.2754 64.2169H14.4916V63.3435H15.253C15.3277 63.3435 15.4024 63.3509 15.477 63.3733C15.5517 63.3957 15.6114 63.4331 15.6636 63.4928C15.7159 63.5525 15.7383 63.6496 15.7383 63.769C15.7383 63.9183 15.6935 64.0303 15.6114 64.0975" fill="#B2571B"/>
<path d="M19.2485 62.1937C19.1291 62.0668 18.9873 61.9623 18.823 61.8876C18.6588 61.813 18.4796 61.7756 18.2855 61.7756C18.0914 61.7756 17.9122 61.813 17.748 61.8876C17.5838 61.9623 17.4419 62.0593 17.3225 62.1937C17.203 62.3206 17.106 62.4774 17.0463 62.6491C16.9791 62.8208 16.9492 63.0074 16.9492 63.209C16.9492 63.4106 16.9791 63.5972 17.0463 63.7689C17.1135 63.9406 17.203 64.0899 17.3225 64.2243C17.4419 64.3586 17.5838 64.4557 17.748 64.5303C17.9122 64.605 18.0914 64.6349 18.2855 64.6349C18.4796 64.6349 18.6588 64.5975 18.823 64.5303C18.9873 64.4557 19.1291 64.3586 19.2485 64.2243C19.368 64.0974 19.465 63.9406 19.5248 63.7689C19.592 63.5972 19.6218 63.4106 19.6218 63.209C19.6218 63.0074 19.592 62.8208 19.5248 62.6491C19.4576 62.4774 19.368 62.3281 19.2485 62.1937ZM19.0768 63.7316C19.0022 63.8883 18.8902 64.0078 18.7558 64.0974C18.6215 64.1869 18.4572 64.2317 18.2781 64.2317C18.0989 64.2317 17.9421 64.1869 17.8077 64.0974C17.6734 64.0078 17.5614 63.8883 17.4867 63.7316C17.4121 63.5748 17.3747 63.4031 17.3747 63.2015C17.3747 63 17.4121 62.8283 17.4867 62.6715C17.5614 62.5147 17.6734 62.3953 17.8077 62.3057C17.9421 62.2161 18.0989 62.1713 18.2781 62.1713C18.4572 62.1713 18.614 62.2161 18.7558 62.3057C18.8902 62.3953 19.0022 62.5222 19.0768 62.6715C19.1515 62.8283 19.1963 63 19.1963 63.1941C19.1963 63.3882 19.159 63.5673 19.0768 63.7241" fill="#B2571B"/>
<path d="M22.5181 61.8206C22.4584 61.8206 22.4136 61.8429 22.3837 61.8803C22.3538 61.9176 22.3314 61.9699 22.3314 62.0221V63.5227C22.3314 63.6645 22.3016 63.7839 22.2344 63.8885C22.1672 63.993 22.0851 64.0751 21.9806 64.1348C21.8761 64.1945 21.7566 64.2244 21.6297 64.2244C21.5103 64.2244 21.4057 64.1945 21.3012 64.1348C21.1967 64.0751 21.1146 63.993 21.0549 63.8885C20.9951 63.7839 20.9653 63.6645 20.9653 63.5227V62.0221C20.9653 61.9624 20.9429 61.9176 20.9056 61.8803C20.8682 61.8429 20.816 61.8206 20.7712 61.8206C20.704 61.8206 20.6592 61.8429 20.6144 61.8803C20.5771 61.9176 20.5547 61.9699 20.5547 62.0221V63.5227C20.5547 63.7317 20.5995 63.9258 20.6965 64.09C20.7936 64.2543 20.9205 64.3886 21.0773 64.4782C21.2415 64.5753 21.4281 64.6201 21.6372 64.6201C21.8462 64.6201 22.0328 64.5753 22.1971 64.4782C22.3613 64.3886 22.4807 64.2543 22.5778 64.09C22.6674 63.9258 22.7196 63.7317 22.7196 63.5227V62.0221C22.7196 61.9624 22.7047 61.9176 22.6674 61.8803C22.6301 61.8429 22.5853 61.8206 22.5255 61.8206" fill="#B2571B"/>
<path d="M25.5941 61.8206H23.7875C23.7352 61.8206 23.683 61.8355 23.6457 61.8728C23.6083 61.9101 23.5859 61.9549 23.5859 62.0072C23.5859 62.0669 23.6083 62.1117 23.6457 62.149C23.683 62.1864 23.7352 62.2013 23.7875 62.2013H24.4743V64.3886C24.4743 64.4484 24.4967 64.4931 24.534 64.5305C24.5714 64.5678 24.6236 64.5902 24.6833 64.5902C24.7431 64.5902 24.7953 64.5678 24.8401 64.5305C24.8774 64.4931 24.8998 64.4409 24.8998 64.3886V62.2013H25.5867C25.6389 62.2013 25.6912 62.1864 25.7285 62.149C25.7658 62.1117 25.7882 62.0669 25.7882 62.0072C25.7882 61.9549 25.7733 61.9027 25.7285 61.8728C25.6912 61.8355 25.6464 61.8206 25.5867 61.8206" fill="#B2571B"/>
<path d="M26.8923 61.8206C26.8251 61.8206 26.7803 61.8429 26.7355 61.8803C26.6982 61.9176 26.6758 61.9699 26.6758 62.0221V64.3886C26.6758 64.4484 26.6982 64.4931 26.7355 64.5305C26.7728 64.5678 26.8251 64.5902 26.8848 64.5902C26.9445 64.5902 26.9893 64.5678 27.0267 64.5305C27.064 64.4931 27.0864 64.4409 27.0938 64.3886V62.0221C27.0938 61.9624 27.0714 61.9176 27.0341 61.8803C26.9968 61.8429 26.9445 61.8206 26.8923 61.8206Z" fill="#B2571B"/>
<path d="M30.7664 64.7394C30.7664 64.7394 30.6918 64.7543 30.6619 64.7842C30.6321 64.814 30.5873 64.8439 30.5425 64.8738C30.5051 64.9036 30.4604 64.926 30.4006 64.9559C30.3484 64.9783 30.2737 64.9932 30.1916 64.9932C30.0946 64.9932 30.005 64.9783 29.9303 64.9484C29.8557 64.9185 29.781 64.8887 29.7138 64.8439C29.6466 64.8066 29.572 64.7692 29.4973 64.7468C29.4525 64.7319 29.4003 64.717 29.3405 64.7095L29.6616 64.5975C29.7362 64.5826 29.8109 64.5602 29.8855 64.5303C30.0498 64.4557 30.1916 64.3586 30.311 64.2243C30.4305 64.0974 30.5275 63.9406 30.5873 63.7689C30.6545 63.5972 30.6843 63.4106 30.6843 63.209C30.6843 63.0074 30.6545 62.8208 30.5873 62.6491C30.5201 62.4774 30.4305 62.3281 30.311 62.1937C30.1916 62.0668 30.0498 61.9623 29.8855 61.8876C29.7213 61.813 29.5421 61.7756 29.348 61.7756C29.1539 61.7756 28.9747 61.813 28.8105 61.8876C28.6463 61.9623 28.5044 62.0593 28.385 62.1937C28.2655 62.3206 28.176 62.4774 28.1088 62.6491C28.0416 62.8208 28.0117 63.0074 28.0117 63.209C28.0117 63.4106 28.0416 63.5972 28.1088 63.7689C28.176 63.9406 28.2655 64.0899 28.385 64.2243C28.5044 64.3512 28.6463 64.4557 28.8105 64.5303C28.9001 64.5677 28.9971 64.5975 29.0942 64.6125L28.6612 64.7692C28.5865 64.7991 28.5492 64.8514 28.5492 64.9409C28.5492 64.9932 28.5642 65.038 28.6015 65.0828C28.6388 65.1276 28.6836 65.1425 28.7433 65.1425C28.7956 65.1425 28.8404 65.135 28.8777 65.1201C28.915 65.1052 28.9449 65.0828 28.9747 65.0679C29.0046 65.0529 29.0494 65.0455 29.1017 65.0455C29.1912 65.0455 29.2659 65.0604 29.3331 65.0903C29.4003 65.1201 29.4675 65.1574 29.5347 65.1948C29.6018 65.2321 29.6914 65.2694 29.7885 65.2993C29.893 65.3291 30.0199 65.3441 30.1767 65.3441C30.2513 65.3441 30.3334 65.3366 30.423 65.3142C30.5126 65.2918 30.5947 65.262 30.6768 65.2246C30.759 65.1873 30.8262 65.1425 30.8784 65.0903C30.9307 65.038 30.9531 64.9857 30.9531 64.9335C30.9531 64.8812 30.9307 64.8364 30.8933 64.7991C30.856 64.7618 30.8112 64.7394 30.7664 64.7394ZM28.5567 63.7316C28.482 63.5748 28.4447 63.4031 28.4447 63.2015C28.4447 63 28.482 62.8283 28.5567 62.6715C28.6313 62.5147 28.7433 62.3953 28.8777 62.3057C29.0121 62.2161 29.1688 62.1713 29.348 62.1713C29.5272 62.1713 29.684 62.2161 29.8258 62.3057C29.9602 62.3953 30.0722 62.5222 30.1468 62.6715C30.2215 62.8283 30.2663 63 30.2663 63.1941C30.2663 63.3882 30.2289 63.5673 30.1468 63.7241C30.0647 63.8809 29.9602 64.0003 29.8258 64.0899C29.6914 64.1795 29.5272 64.2243 29.348 64.2243C29.1688 64.2243 29.0121 64.1795 28.8777 64.0899C28.7433 64.0003 28.6313 63.8809 28.5567 63.7241" fill="#B2571B"/>
<path d="M33.5884 61.8206C33.5287 61.8206 33.4839 61.8429 33.454 61.8803C33.4241 61.9176 33.4018 61.9699 33.4018 62.0221V63.5227C33.4018 63.6645 33.3719 63.7839 33.3047 63.8885C33.2375 63.993 33.1554 64.0751 33.0509 64.1348C32.9464 64.1945 32.8269 64.2244 32.7 64.2244C32.5806 64.2244 32.476 64.1945 32.3715 64.1348C32.267 64.0751 32.1849 63.993 32.1252 63.8885C32.0655 63.7839 32.0356 63.6645 32.0356 63.5227V62.0221C32.0356 61.9624 32.0132 61.9176 31.9759 61.8803C31.9385 61.8429 31.8863 61.8206 31.8415 61.8206C31.7743 61.8206 31.7295 61.8429 31.6847 61.8803C31.6474 61.9176 31.625 61.9699 31.625 62.0221V63.5227C31.625 63.7317 31.6698 63.9258 31.7668 64.09C31.8639 64.2543 31.9908 64.3886 32.1476 64.4782C32.3118 64.5753 32.4984 64.6201 32.7075 64.6201C32.9165 64.6201 33.1031 64.5753 33.2674 64.4782C33.4316 64.3886 33.5511 64.2543 33.6481 64.09C33.7377 63.9258 33.79 63.7317 33.79 63.5227V62.0221C33.79 61.9624 33.775 61.9176 33.7377 61.8803C33.7004 61.8429 33.6556 61.8206 33.5959 61.8206" fill="#B2571B"/>
<path d="M36.4346 62.2013C36.4868 62.2013 36.5391 62.1864 36.5764 62.149C36.6137 62.1117 36.6361 62.0669 36.6361 62.0147C36.6361 61.9624 36.6137 61.9101 36.5764 61.8728C36.5391 61.8355 36.4943 61.8206 36.4346 61.8206H35.0609C35.0087 61.8206 34.9564 61.8355 34.9191 61.8803C34.8818 61.9176 34.8594 61.9699 34.8594 62.0221V64.3886C34.8594 64.4484 34.8818 64.4931 34.9191 64.5305C34.9564 64.5678 35.0087 64.5902 35.0609 64.5902H36.4346C36.4868 64.5902 36.5391 64.5753 36.5764 64.5379C36.6137 64.5006 36.6361 64.4558 36.6361 64.4036C36.6361 64.3513 36.6137 64.3065 36.5764 64.2692C36.5391 64.2319 36.4943 64.2095 36.4346 64.2095H35.2774V63.3584H36.2554C36.3077 63.3584 36.3599 63.3435 36.3972 63.3062C36.4346 63.2688 36.457 63.224 36.457 63.1718C36.457 63.1121 36.4346 63.0673 36.3972 63.0299C36.3599 62.9926 36.3151 62.9702 36.2554 62.9702H35.2774V62.1864H36.4346V62.2013Z" fill="#B2571B"/>
<path d="M41.0984 61.8206C41.0386 61.8206 40.9939 61.8429 40.9565 61.8803C40.9117 61.9176 40.8968 61.9699 40.8968 62.0221V63.0001H39.5157V62.0221C39.5157 61.9624 39.4933 61.9176 39.456 61.8803C39.4187 61.8429 39.3664 61.8206 39.3141 61.8206C39.247 61.8206 39.2022 61.8429 39.1574 61.8803C39.1201 61.9176 39.0977 61.9699 39.0977 62.0221V64.3886C39.0977 64.4484 39.1201 64.4931 39.1574 64.5305C39.1947 64.5678 39.247 64.5902 39.3067 64.5902C39.3664 64.5902 39.4112 64.5678 39.4485 64.5305C39.4859 64.4931 39.5082 64.4409 39.5157 64.3886V63.3808H40.8968V64.3886C40.8968 64.4484 40.9192 64.4931 40.9565 64.5305C40.9939 64.5678 41.0461 64.5902 41.0984 64.5902C41.1581 64.5902 41.2103 64.5678 41.2477 64.5305C41.285 64.4931 41.3074 64.4409 41.3074 64.3886V62.0221C41.3074 61.9624 41.2925 61.9176 41.2551 61.8803C41.2178 61.8429 41.1656 61.8206 41.1058 61.8206" fill="#B2571B"/>
<path d="M44.5337 62.1937C44.4143 62.0668 44.2724 61.9623 44.1082 61.8876C43.9439 61.813 43.7648 61.7756 43.5707 61.7756C43.3766 61.7756 43.1974 61.813 43.0332 61.8876C42.8689 61.9623 42.7271 62.0593 42.6076 62.1937C42.4882 62.3206 42.3911 62.4774 42.3314 62.6491C42.2642 62.8208 42.2344 63.0074 42.2344 63.209C42.2344 63.4106 42.2642 63.5972 42.3314 63.7689C42.3986 63.9406 42.4882 64.0899 42.6076 64.2243C42.7271 64.3586 42.8689 64.4557 43.0332 64.5303C43.1974 64.605 43.3766 64.6349 43.5707 64.6349C43.7648 64.6349 43.9439 64.5975 44.1082 64.5303C44.2724 64.4557 44.4143 64.3586 44.5337 64.2243C44.6531 64.0974 44.7502 63.9406 44.8099 63.7689C44.8771 63.5972 44.907 63.4106 44.907 63.209C44.907 63.0074 44.8771 62.8208 44.8099 62.6491C44.7427 62.4774 44.6531 62.3281 44.5337 62.1937ZM44.362 63.7316C44.2873 63.8883 44.1754 64.0078 44.041 64.0974C43.9066 64.1869 43.7424 64.2317 43.5632 64.2317C43.384 64.2317 43.2273 64.1869 43.0929 64.0974C42.9585 64.0078 42.8465 63.8883 42.7719 63.7316C42.6972 63.5748 42.6599 63.4031 42.6599 63.2015C42.6599 63 42.6972 62.8283 42.7719 62.6715C42.8465 62.5147 42.9585 62.3953 43.0929 62.3057C43.2273 62.2161 43.384 62.1713 43.5632 62.1713C43.7424 62.1713 43.8991 62.2161 44.041 62.3057C44.1754 62.3953 44.2873 62.5222 44.362 62.6715C44.4367 62.8283 44.4814 63 44.4814 63.1941C44.4814 63.3882 44.4441 63.5673 44.362 63.7241" fill="#B2571B"/>
<path d="M47.559 61.8206H45.7523C45.7001 61.8206 45.6478 61.8355 45.6105 61.8728C45.5732 61.9101 45.5508 61.9549 45.5508 62.0072C45.5508 62.0669 45.5732 62.1117 45.6105 62.149C45.6478 62.1864 45.7001 62.2013 45.7523 62.2013H46.4392V64.3886C46.4392 64.4484 46.4616 64.4931 46.4989 64.5305C46.5362 64.5678 46.5885 64.5902 46.6482 64.5902C46.7079 64.5902 46.7602 64.5678 46.805 64.5305C46.8423 64.4931 46.8647 64.4409 46.8647 64.3886V62.2013H47.5515C47.6038 62.2013 47.656 62.1864 47.6933 62.149C47.7307 62.1117 47.7531 62.0669 47.7531 62.0072C47.7531 61.9549 47.7381 61.9027 47.6933 61.8728C47.656 61.8355 47.6112 61.8206 47.5515 61.8206" fill="#B2571B"/>
<path d="M50.2158 62.2013C50.2681 62.2013 50.3203 62.1864 50.3577 62.149C50.395 62.1117 50.4174 62.0669 50.4174 62.0147C50.4174 61.9624 50.395 61.9101 50.3577 61.8728C50.3203 61.8355 50.2755 61.8206 50.2158 61.8206H48.8422C48.7899 61.8206 48.7377 61.8355 48.7003 61.8803C48.663 61.9176 48.6406 61.9699 48.6406 62.0221V64.3886C48.6406 64.4484 48.663 64.4931 48.7003 64.5305C48.7377 64.5678 48.7899 64.5902 48.8422 64.5902H50.2158C50.2681 64.5902 50.3203 64.5753 50.3577 64.5379C50.395 64.5006 50.4174 64.4558 50.4174 64.4036C50.4174 64.3513 50.395 64.3065 50.3577 64.2692C50.3203 64.2319 50.2755 64.2095 50.2158 64.2095H49.0587V63.3584H50.0366C50.0889 63.3584 50.1412 63.3435 50.1785 63.3062C50.2158 63.2688 50.2382 63.224 50.2382 63.1718C50.2382 63.1121 50.2158 63.0673 50.1785 63.0299C50.1412 62.9926 50.0964 62.9702 50.0366 62.9702H49.0587V62.1864H50.2158V62.2013Z" fill="#B2571B"/>
<path d="M53.0156 64.2618C52.9783 64.2245 52.9335 64.2096 52.8738 64.2096H51.754V62.0297C51.754 61.97 51.7316 61.9252 51.6943 61.8878C51.6569 61.8505 51.6047 61.8281 51.5524 61.8281C51.4927 61.8281 51.4405 61.8505 51.3957 61.8878C51.3583 61.9252 51.3359 61.9774 51.3359 62.0297V64.3962C51.3359 64.4559 51.3583 64.5007 51.3957 64.5381C51.433 64.5754 51.4852 64.5978 51.5375 64.5978H52.8663C52.9186 64.5978 52.9709 64.5828 53.0082 64.5381C53.0455 64.5007 53.0679 64.4559 53.0679 64.4037C53.0679 64.3514 53.0455 64.2992 53.0082 64.2618" fill="#B2571B"/>
</svg>
